<?xml version="1.0" encoding="UTF-8" standalone="no"?>
<!-- Created with Inkscape (http://www.inkscape.org/) -->

<svg
   version="1.1"
   id="svg1"
   width="1024"
   height="1024"
   viewBox="0 0 1024 1024"
   sodipodi:docname="DALL·E ContentCub Logo.png"
   xml:space="preserve"
   xmlns:inkscape="http://www.inkscape.org/namespaces/inkscape"
   xmlns:sodipodi="http://sodipodi.sourceforge.net/DTD/sodipodi-0.dtd"
   xmlns="http://www.w3.org/2000/svg"
   xmlns:svg="http://www.w3.org/2000/svg"><defs
     id="defs1" /><sodipodi:namedview
     id="namedview1"
     pagecolor="#ffffff"
     bordercolor="#000000"
     borderopacity="0.25"
     inkscape:showpageshadow="2"
     inkscape:pageopacity="0.0"
     inkscape:pagecheckerboard="0"
     inkscape:deskcolor="#d1d1d1" /><g
     inkscape:groupmode="layer"
     inkscape:label="Image"
     id="g1"><path
       style="fill:#061215;stroke:none;stroke-width:1.78922"
       d="m 128.84709,309.18819 c -28.911263,69.33749 -26.82238,158.65324 -2.87078,229.02042 9.27121,27.23791 29.88728,51.52204 37.36468,78.72577 4.31847,15.71116 -1.01603,35.51613 -0.28703,51.88744 1.34234,30.14682 14.56784,58.15004 34.60818,80.4107 17.08541,18.97825 39.09544,32.31924 63.58738,39.30326 19.92268,5.6812 39.06717,4.2422 55.46588,18.62794 33.75492,29.61126 64.86702,62.5437 96.618,94.25479 15.51629,15.49668 31.67837,34.61047 55.46588,34.73912 23.41714,0.12649 40.23828,-19.54691 55.46588,-34.74131 32.2831,-32.21267 62.34147,-71.09472 98.40722,-99.04389 14.23417,-11.03084 33.40606,-9.54814 50.09822,-14.28757 24.16258,-6.86039 46.76548,-20.36998 63.781,-38.85452 20.60347,-22.38221 33.15215,-51.74887 34.42385,-82.19774 0.70885,-16.97382 -7.24229,-43.11235 2.21414,-57.81882 31.98868,-49.74866 89.25788,-81.43363 122.87295,-130.0495 10.92175,-15.79559 14.83228,-37.32882 20.45429,-55.46588 9.65409,-31.14495 20.44818,-61.91163 30.14823,-93.03955 7.96413,-25.55735 29.6502,-65.97253 25.0654,-92.86307 -4.89231,-28.69417 -44.41943,-6.83888 -59.20411,-0.69891 -59.92354,24.88584 -132.73573,42.50614 -187.30448,77.67412 -28.9033,18.62739 -51.46864,51.6545 -74.6262,76.72141 -42.44893,45.94896 -86.62778,90.37722 -129.46263,135.98088 -20.07446,21.37217 -45.30212,59.61338 -72.01913,72.11971 -11.94577,5.59175 -24.88868,-6.35084 -35.78051,-10.2129 -17.08727,-6.05883 -37.92383,-6.35717 -55.46589,-1.99321 -33.66977,8.37606 -50.05551,44.08449 -80.51499,53.64292 -11.22671,3.52306 -22.26207,-6.76572 -30.14567,-13.3615 -21.3276,-17.84363 -38.81773,-40.10354 -52.22662,-64.41058 -17.87639,-32.40552 -29.06674,-68.71207 -32.44626,-105.5641 -18.96495,-206.8029 181.00875,-380.491885 383.20186,-320.60253 34.73279,10.28782 67.95331,27.67604 96.61798,49.75925 30.02452,23.13082 57.54812,50.86932 75.14734,84.76418 l 48.30899,-17.89221 c -4.06453,-23.32478 20.23839,-39.56372 19.05657,-64.412 -2.54044,-53.41434 -69.48404,-74.98418 -101.36079,-32.206 -6.18648,-5.34922 -17.36758,-12.21255 -18.81238,-20.9646 -3.49512,-21.17286 36.64029,-39.843728 52.80761,-42.350658 45.94744,-7.12455 92.06172,27.456118 101.73318,72.261368 4.88421,22.62726 -0.26844,44.57865 -6.90441,66.20121 16.30721,-4.32244 45.2319,-10.90131 55.8078,-24.99286 9.52677,-12.69371 5.28325,-37.56263 2.3809,-51.94368 C 860.09082,103.64563 820.26216,58.706493 769.38858,43.763804 730.49725,32.340587 685.36569,39.754318 653.09692,64.417596 640.90215,73.738171 626.33938,101.20684 611.33958,103.87451 601.66552,105.59503 590.17862,97.728442 581.52027,94.274262 562.95164,86.866532 543.99969,81.535222 524.26516,78.322625 451.90553,66.543172 376.21284,75.414691 311.34774,110.58454 279.3892,41.310709 186.73121,18.631479 123.48145,58.566591 54.818528,101.91962 29.792791,196.13106 76.824967,264.45742 c 13.28461,19.29944 31.084223,34.42614 52.022123,44.73077 M 268.40641,137.42287 c -6.72269,4.71593 -14.59329,11.6306 -23.2708,11.68072 -9.14913,0.0527 -17.05489,-7.55232 -25.0382,-11.12334 -15.40068,-6.8889 -31.84398,-5.68425 -46.4923,2.51763 -23.03487,12.89769 -36.99394,40.93205 -28.39784,66.70465 3.45996,10.37353 13.25781,19.45659 14.34299,30.41382 0.91165,9.20526 -5.53333,18.79141 -9.23251,26.84128 -13.75621,-9.42465 -25.81403,-21.02455 -33.87868,-35.79176 -40.732873,-74.586 41.91959,-170.021838 119.73677,-125.32274 14.1947,8.15361 23.65507,20.46367 32.23057,34.07974 M 866.00658,285.9283 c 6.71471,24.75632 22.74772,44.68021 50.09821,44.73055 l -37.57366,116.29943 c -34.84986,-0.23283 -26.6815,-23.18694 -44.23236,-45.35858 -12.27435,-15.50599 -36.41684,-7.74944 -49.58604,-20.64367 -8.38915,-8.214 -4.71919,-23.33108 -9.04931,-33.4898 -3.44205,-8.07542 -11.48645,-11.25909 -18.79939,-15.01815 L 866.00658,285.9283 m -561.81355,6.91347 c -62.0717,12.44035 -39.81088,107.96564 21.46641,95.45168 62.76464,-12.81766 39.82319,-107.73532 -21.46641,-95.45168 m 291.64147,-0.15191 c -63.0831,8.22481 -43.52471,105.02942 17.89156,96.12941 64.01251,-9.27624 42.83397,-104.04692 -17.89156,-96.12941 m -301.9266,14.32165 c 14.07893,-3.06541 18.10321,18.8469 4.52826,22.51946 -14.76817,3.99539 -18.60707,-19.45418 -4.52826,-22.51946 m 291.27033,0.50213 c 13.88917,0 14.06357,22.41877 -0.0548,22.41877 -13.90667,0 -13.50031,-22.41877 0.0548,-22.41877 m 159.16124,51.77276 7.15689,55.46589 c 32.7506,1.45515 56.14166,7.20351 68.06907,39.3644 3.18913,8.59906 6.79084,17.74567 2.8031,26.70554 -4.70328,10.56764 -117.29548,134.71346 -149.59793,159.37203 -14.40791,-18.72064 -31.21168,-37.80779 -51.88745,-49.75038 -59.6301,-34.44309 -131.87769,10.73302 -131.83848,78.37794 0.029,50.02843 42.06888,91.99357 85.31871,110.93177 v 3.57844 l -93.03955,98.40722 h -1.78922 c -31.00467,-31.00452 -69.45172,-61.21906 -93.03955,-98.40722 36.54259,-13.25237 66.39993,-34.49768 80.515,-80.515 5.1652,-17.29332 -2.24848,-37.92968 4.89481,-53.67666 C 486.944,615.98755 527.39052,586.17765 551.9293,559.67928 614.42825,492.18955 677.11293,422.0696 744.33947,359.2864 m -298.80007,80.515 c -0.0125,7.06744 0.41525,14.44209 -0.9685,21.41126 -4.23646,21.33667 -28.49426,25.59786 -42.19277,10.02845 -6.21253,-7.06103 -7.26512,-18.82582 -14.67541,-24.5922 -6.2478,-4.86173 -13.41736,-0.42099 -15.47982,6.32125 -15.05206,49.20512 60.91965,69.40158 87.63027,35.14023 14.80794,14.85282 32.34611,23.32498 53.67447,17.84068 19.23055,-4.94483 42.03975,-29.53582 33.39788,-50.9972 -2.44643,-6.07553 -9.30594,-9.39483 -14.86397,-4.90344 -7.30693,5.90474 -7.78502,17.51721 -14.49013,24.35141 -14.97088,15.25906 -37.08126,4.47074 -40.7178,-14.90481 -1.2077,-6.4347 -0.88008,-13.17989 -0.89745,-19.69563 31.43009,-7.32921 67.97908,-62.1925 17.87355,-72.28724 -19.09927,-3.84797 -61.68562,-6.80917 -77.95184,5.15526 -31.45863,23.13921 4.48889,60.29125 29.66152,67.13198 m -194.48229,17.39337 c -16.16666,4.87121 -8.17889,29.53799 7.83778,24.6221 16.0705,-4.93236 8.16872,-29.44506 -7.83778,-24.6221 m 468.23326,213.41628 c -9.12423,96.31635 -137.29877,93.36813 -183.96368,28.61346 -21.25127,-29.4894 -12.61823,-79.17658 28.30181,-84.92984 35.37098,-4.97311 57.23871,26.06177 78.51172,49.15621 8.76329,9.51355 18.67937,23.42632 32.42353,25.43438 16.19713,2.36637 32.19027,-9.74494 44.72662,-18.27421 M 212.94052,667.0326 c 19.98111,12.53023 42.82809,29.93245 67.99045,20.76508 41.47578,-15.11085 62.39512,-78.65335 114.50999,-66.748 42.80652,9.7788 48.30982,59.11607 22.24903,88.69187 -59.05012,67.01479 -186.01778,50.87323 -204.74947,-42.70895 M 422.2795,966.6597 c -14.66224,1.0904 -30.20349,0.46378 -44.55717,3.97377 -4.46815,1.09258 -13.13311,4.19884 -10.98974,10.47522 4.32444,12.6628 36.39126,9.5778 46.60081,9.897 34.78516,1.0875 68.97569,1.7703 103.77487,0.1269 14.0471,-0.6633 32.72298,1.2943 45.53311,-5.4828 21.01625,-11.11842 -19.71082,-17.15376 -25.85177,-17.57419 -37.82614,-2.59014 -76.64863,-4.2315 -114.51011,-1.41585"
       id="path1030"
       sodipodi:nodetypes="csssssssssssssssssssssssssssssssccscssscssssssscssccssssscssccccssscccsccsccsccscccsscssccccccssccsssscssssscssccsccssssccsssccssssscc" /></g></svg>
