<?xml version="1.0" standalone="no"?>
<!DOCTYPE svg PUBLIC "-//W3C//DTD SVG 20010904//EN"
 "http://www.w3.org/TR/2001/REC-SVG-20010904/DTD/svg10.dtd">
<svg version="1.0" xmlns="http://www.w3.org/2000/svg"
 width="700.000000pt" height="700.000000pt" viewBox="0 0 700.000000 700.000000"
 preserveAspectRatio="xMidYMid meet">
<metadata>
Created by potrace 1.14, written by Peter Selinger 2001-2017
</metadata>
<g transform="translate(0.000000,700.000000) scale(0.100000,-0.100000)"
fill="#000000" stroke="none">
<path d="M4892 6730 c-145 -20 -302 -80 -403 -155 -26 -18 -86 -79 -134 -135
-48 -55 -105 -113 -126 -127 -50 -33 -97 -29 -205 20 -246 111 -514 162 -854
161 -357 -1 -647 -63 -943 -201 -53 -26 -99 -44 -100 -42 -2 2 -16 27 -32 54
-104 183 -285 322 -510 391 -83 26 -104 28 -260 28 -193 1 -243 -9 -383 -75
-401 -187 -643 -649 -567 -1082 29 -164 89 -298 195 -432 64 -80 176 -175 260
-221 28 -15 48 -32 46 -38 -52 -123 -107 -349 -127 -526 -16 -147 -6 -511 20
-655 44 -252 86 -381 183 -564 179 -337 185 -356 170 -556 -11 -148 -4 -238
24 -334 48 -167 163 -340 298 -449 136 -111 261 -167 459 -208 148 -30 211
-58 296 -132 36 -31 231 -220 432 -419 333 -329 373 -366 435 -396 57 -27 81
-32 139 -32 146 0 229 66 622 491 240 260 393 402 478 444 39 19 101 37 180
51 65 11 149 32 185 45 262 99 463 303 551 558 44 128 54 223 41 380 -16 172
-8 216 55 306 77 109 171 208 402 419 275 252 382 370 441 489 16 33 52 134
79 224 83 277 241 755 307 928 78 206 96 275 97 370 2 129 -32 166 -142 158
-52 -4 -102 -20 -236 -76 -93 -39 -242 -96 -330 -127 -391 -138 -581 -212
-730 -284 -279 -135 -368 -206 -604 -481 -145 -169 -138 -161 -647 -695 -215
-226 -420 -444 -455 -485 -36 -41 -105 -122 -154 -179 -133 -155 -258 -251
-326 -251 -14 0 -63 18 -109 41 -113 54 -175 69 -292 69 -182 0 -274 -37 -427
-173 -204 -180 -290 -229 -363 -208 -91 28 -300 231 -417 406 -372 556 -409
1295 -97 1930 292 594 830 1014 1476 1153 117 25 141 26 380 26 240 0 263 -1
383 -27 306 -65 585 -193 828 -378 205 -157 369 -329 471 -496 28 -46 55 -83
61 -83 5 0 78 25 162 56 l152 56 6 56 c4 41 22 88 62 169 31 62 60 136 64 163
25 155 -73 327 -224 396 -75 35 -181 42 -259 20 -72 -21 -97 -36 -158 -95
l-47 -45 -48 40 c-27 22 -56 57 -67 78 -26 53 -10 104 54 166 95 92 245 153
378 152 107 -1 182 -20 284 -74 136 -70 240 -188 304 -343 27 -66 29 -78 29
-210 -1 -114 -5 -156 -23 -224 -13 -46 -21 -86 -18 -89 9 -8 165 37 235 69
140 64 170 109 171 259 0 311 -178 642 -443 822 -183 124 -432 186 -635 158z
m-3429 -375 c71 -18 147 -56 210 -104 47 -35 157 -167 157 -187 0 -18 -123
-84 -155 -84 -16 0 -63 18 -104 41 -97 52 -170 72 -243 63 -124 -13 -255 -109
-313 -228 -23 -46 -30 -77 -33 -141 -5 -96 3 -127 60 -225 56 -97 59 -139 18
-229 l-33 -70 -59 46 c-105 83 -186 201 -224 328 -29 96 -24 249 10 350 76
222 242 386 446 439 72 19 192 20 263 1z m4481 -1375 c52 -129 139 -210 252
-232 32 -7 60 -13 62 -14 1 0 -54 -175 -123 -389 -69 -213 -125 -389 -125
-391 0 -10 -84 -3 -113 10 -49 21 -81 63 -123 161 -27 62 -52 104 -84 136 -41
43 -52 48 -125 64 -143 30 -158 36 -196 74 -30 30 -38 46 -43 91 -14 113 -18
130 -39 156 -11 15 -41 39 -65 55 -44 28 -44 28 -21 39 311 134 706 299 712
297 5 -1 18 -27 31 -57z m-834 -610 c29 -231 21 -210 83 -210 199 -1 342 -92
406 -260 41 -105 41 -163 2 -216 -129 -177 -844 -939 -965 -1029 l-38 -29 -31
39 c-57 74 -242 250 -300 284 -112 66 -172 84 -294 89 -101 4 -121 2 -196 -21
-313 -98 -490 -413 -415 -737 19 -80 93 -222 158 -303 90 -113 275 -255 384
-297 14 -5 26 -14 26 -20 0 -6 -144 -164 -321 -351 l-321 -339 -26 21 c-64 50
-426 406 -489 481 -72 85 -129 166 -122 172 2 2 43 21 91 44 194 90 329 220
408 396 44 97 53 142 54 291 1 137 2 142 33 205 57 116 121 190 393 455 73 72
267 274 429 450 407 440 658 701 856 893 92 89 169 161 171 159 1 -1 12 -76
24 -167z m-1042 -1608 c73 -38 171 -129 314 -290 56 -62 121 -127 146 -144 86
-59 184 -46 321 42 34 22 63 40 65 40 7 0 -15 -98 -35 -155 -59 -164 -192
-280 -379 -331 -96 -26 -269 -24 -385 5 -174 42 -347 149 -438 271 -78 103
-108 216 -87 330 15 85 49 149 105 198 66 58 112 72 220 69 78 -3 98 -8 153
-35z m-1286 -36 c71 -34 130 -99 159 -175 32 -84 24 -202 -19 -294 -55 -118
-197 -245 -347 -312 -197 -87 -445 -98 -647 -29 -153 52 -297 162 -377 288
-39 62 -99 212 -88 222 3 3 47 -20 98 -51 117 -70 210 -100 287 -92 101 11
166 53 346 225 230 220 291 254 441 249 73 -3 101 -8 147 -31z"/>
<path d="M2090 4998 c-113 -18 -204 -88 -241 -188 -17 -44 -20 -71 -17 -135 7
-134 74 -246 182 -303 44 -23 63 -27 142 -27 84 0 96 3 160 35 118 61 173 163
161 304 -18 207 -187 345 -387 314z m-15 -118 c26 -29 25 -85 -2 -112 -48 -47
-123 -13 -123 55 0 66 83 103 125 57z"/>
<path d="M4002 4982 c-114 -41 -182 -133 -190 -256 -11 -177 96 -339 251 -377
108 -26 247 11 320 86 141 145 77 433 -118 533 -68 35 -186 41 -263 14z m43
-107 c49 -48 22 -125 -44 -127 -66 -2 -95 79 -46 127 31 32 59 32 90 0z"/>
<path d="M2950 4494 c-113 -24 -190 -101 -190 -189 0 -96 102 -225 226 -286
l66 -33 -6 -75 c-12 -131 -62 -191 -159 -191 -79 0 -126 33 -172 122 -21 40
-47 83 -58 96 -43 46 -99 19 -117 -59 -41 -171 97 -317 312 -327 106 -5 173
13 244 67 l49 37 50 -37 c86 -64 139 -84 230 -84 97 0 151 22 224 90 112 104
136 255 50 304 -24 13 -29 13 -52 -2 -14 -9 -44 -52 -67 -94 -45 -87 -73 -113
-130 -120 -54 -7 -84 2 -126 39 -46 41 -62 78 -70 166 l-7 69 57 26 c76 35
168 125 206 200 55 111 35 204 -56 247 -94 46 -366 64 -504 34z"/>
<path d="M1703 3870 c-28 -11 -43 -40 -43 -83 0 -27 7 -41 32 -62 84 -71 186
48 109 126 -30 29 -58 35 -98 19z"/>
<path d="M2875 393 c-128 -5 -287 -24 -321 -38 -47 -20 -59 -46 -33 -79 38
-48 63 -50 659 -51 504 0 560 2 613 18 32 10 67 27 79 39 l21 21 -26 23 c-36
31 -142 52 -322 64 -135 9 -490 11 -670 3z"/>
</g>
</svg>
